PathFileType	4	(X / Y / Z)	Demo_145623_11_September_2019	Demo_145623_11_September_2019.trc
DataRate	CameraRate	NumFrames	NumMarkers	Units	OrigDataRate	OrigDataStartFrame	OrigNumFrames
50	50	23	25	m	50	767	820
Frame#	Time		SpineBase		SpineMid		Neck		Head		ShoulderLeft		ElbowLeft		WristLeft		HandLeft		ShoulderRight		ElbowRight		WristRight		HandRight		HipLeft		KneeLeft		AnkleLeft		FootLeft		HipRight		KneeRight		AnkleRight		FootRight		SpineShoulder		HandTipLeft		LeftThumb		HandTipRight		ThumbRight		
X1	Y1	Z1	X2	Y2	Z2	X3	Y3	Z3	X4	Y4	Z4	X5	Y5	Z5	X6	Y6	Z6	X7	Y7	Z7	X8	Y8	Z8	X9	Y9	Z9	X10	Y10	Z10	X11	Y11	Z11	X12	Y12	Z12	X13	Y13	Z13	X14	Y14	Z14	X15	Y15	Z15	X16	Y16	Z16	X17	Y17	Z17	X18	Y18	Z18	X19	Y19	Z19	X20	Y20	Z20	X21	Y21	Z21	X22	Y22	Z22	X23	Y23	Z23	X24	Y24	Z24	X25	Y25	Z25	
718	35.287	0.113	0.583	0.999	0.086	0.759	0.860	0.056	0.934	0.708	0.079	1.079	0.637	-0.080	0.931	0.764	-0.158	0.774	0.634	-0.111	0.608	0.703	-0.125	0.594	0.716	0.195	0.921	0.688	0.277	0.767	0.623	0.316	0.578	0.673	0.311	0.594	0.691	0.029	0.596	0.981	-0.036	0.439	1.191	-0.032	0.343	1.388	-0.047	0.357	1.396	0.189	0.596	0.957	0.261	0.418	1.146	0.376	0.149	1.432	0.368	0.051	1.344	0.063	0.890	0.749	-0.118	0.580	0.723	-0.128	0.596	0.679	0.319	0.581	0.696	0.306	0.606	0.655
719	35.304	0.113	0.583	0.999	0.086	0.759	0.860	0.056	0.934	0.708	0.079	1.079	0.637	-0.080	0.931	0.764	-0.158	0.774	0.634	-0.111	0.608	0.703	-0.125	0.594	0.716	0.195	0.921	0.688	0.277	0.767	0.623	0.316	0.578	0.673	0.311	0.594	0.691	0.029	0.596	0.981	-0.036	0.439	1.191	-0.032	0.343	1.388	-0.047	0.357	1.396	0.189	0.596	0.957	0.261	0.418	1.146	0.376	0.149	1.432	0.368	0.051	1.344	0.063	0.890	0.749	-0.118	0.580	0.723	-0.128	0.596	0.679	0.319	0.581	0.696	0.306	0.606	0.655
720	35.321	0.112	0.577	1.000	0.084	0.753	0.861	0.053	0.927	0.709	0.075	1.070	0.637	-0.083	0.929	0.761	-0.160	0.767	0.629	-0.108	0.606	0.708	-0.125	0.595	0.721	0.193	0.918	0.687	0.279	0.764	0.621	0.310	0.573	0.693	0.302	0.599	0.714	0.029	0.590	0.983	-0.038	0.432	1.192	-0.027	0.328	1.381	-0.041	0.345	1.391	0.188	0.591	0.958	0.260	0.413	1.146	0.373	0.143	1.444	0.368	0.044	1.357	0.061	0.884	0.749	-0.118	0.583	0.728	-0.126	0.596	0.687	0.309	0.582	0.719	0.297	0.608	0.680
721	35.337	0.112	0.577	1.000	0.084	0.753	0.861	0.053	0.927	0.709	0.075	1.070	0.637	-0.083	0.929	0.761	-0.160	0.767	0.629	-0.108	0.606	0.708	-0.125	0.595	0.721	0.193	0.918	0.687	0.279	0.764	0.621	0.310	0.573	0.693	0.302	0.599	0.714	0.029	0.590	0.983	-0.038	0.432	1.192	-0.027	0.328	1.381	-0.041	0.345	1.391	0.188	0.591	0.958	0.260	0.413	1.146	0.373	0.143	1.444	0.368	0.044	1.357	0.061	0.884	0.749	-0.118	0.583	0.728	-0.126	0.596	0.687	0.309	0.582	0.719	0.297	0.608	0.680
722	35.354	0.101	0.569	1.007	0.081	0.747	0.862	0.052	0.923	0.709	0.073	1.064	0.638	-0.085	0.936	0.754	-0.161	0.763	0.626	-0.107	0.604	0.711	-0.126	0.597	0.724	0.191	0.915	0.685	0.280	0.762	0.620	0.307	0.570	0.706	0.296	0.603	0.728	0.023	0.583	0.986	-0.070	0.404	1.228	-0.038	0.297	1.397	-0.031	0.309	1.403	0.172	0.582	0.970	0.261	0.407	1.147	0.382	0.142	1.440	0.381	0.046	1.353	0.059	0.879	0.749	-0.118	0.586	0.731	-0.127	0.598	0.692	0.301	0.585	0.734	0.291	0.609	0.695
723	35.371	0.101	0.569	1.007	0.081	0.747	0.862	0.052	0.923	0.709	0.073	1.064	0.638	-0.085	0.936	0.754	-0.161	0.763	0.626	-0.107	0.604	0.711	-0.126	0.597	0.724	0.191	0.915	0.685	0.280	0.762	0.620	0.307	0.570	0.706	0.296	0.603	0.728	0.023	0.583	0.986	-0.070	0.404	1.228	-0.038	0.297	1.397	-0.031	0.309	1.403	0.172	0.582	0.970	0.261	0.407	1.147	0.382	0.142	1.440	0.381	0.046	1.353	0.059	0.879	0.749	-0.118	0.586	0.731	-0.127	0.598	0.692	0.301	0.585	0.734	0.291	0.609	0.695
724	35.387	0.095	0.565	1.011	0.078	0.744	0.864	0.051	0.920	0.709	0.071	1.060	0.638	-0.087	0.937	0.753	-0.162	0.759	0.624	-0.106	0.603	0.713	-0.128	0.599	0.724	0.190	0.913	0.684	0.281	0.760	0.619	0.289	0.568	0.678	0.277	0.550	0.682	0.018	0.578	0.989	-0.084	0.393	1.243	-0.042	0.283	1.409	-0.026	0.290	1.409	0.165	0.577	0.976	0.262	0.402	1.148	0.391	0.142	1.429	0.390	0.050	1.344	0.058	0.876	0.750	-0.121	0.592	0.729	-0.127	0.600	0.694	0.279	0.537	0.689	0.273	0.555	0.655
725	35.404	0.095	0.565	1.011	0.078	0.744	0.864	0.051	0.920	0.709	0.071	1.060	0.638	-0.087	0.937	0.753	-0.162	0.759	0.624	-0.106	0.603	0.713	-0.128	0.599	0.724	0.190	0.913	0.684	0.281	0.760	0.619	0.289	0.568	0.678	0.277	0.550	0.682	0.018	0.578	0.989	-0.084	0.393	1.243	-0.042	0.283	1.409	-0.026	0.290	1.409	0.165	0.577	0.976	0.262	0.402	1.148	0.391	0.142	1.429	0.390	0.050	1.344	0.058	0.876	0.750	-0.121	0.592	0.729	-0.127	0.600	0.694	0.279	0.537	0.689	0.273	0.555	0.655
726	35.421	0.089	0.562	1.014	0.075	0.741	0.865	0.050	0.917	0.709	0.070	1.057	0.638	-0.090	0.939	0.750	-0.163	0.757	0.622	-0.105	0.603	0.713	-0.129	0.600	0.724	0.189	0.911	0.684	0.282	0.759	0.618	0.279	0.568	0.660	0.268	0.523	0.656	0.012	0.575	0.990	-0.093	0.386	1.251	-0.045	0.274	1.416	-0.024	0.278	1.412	0.159	0.575	0.979	0.263	0.398	1.148	0.401	0.143	1.412	0.399	0.057	1.330	0.057	0.874	0.750	-0.124	0.595	0.728	-0.128	0.602	0.695	0.269	0.513	0.664	0.265	0.528	0.631
727	35.437	0.089	0.562	1.014	0.075	0.741	0.865	0.050	0.917	0.709	0.070	1.057	0.638	-0.090	0.939	0.750	-0.163	0.757	0.622	-0.105	0.603	0.713	-0.129	0.600	0.724	0.189	0.911	0.684	0.282	0.759	0.618	0.279	0.568	0.660	0.268	0.523	0.656	0.012	0.575	0.990	-0.093	0.386	1.251	-0.045	0.274	1.416	-0.024	0.278	1.412	0.159	0.575	0.979	0.263	0.398	1.148	0.401	0.143	1.412	0.399	0.057	1.330	0.057	0.874	0.750	-0.124	0.595	0.728	-0.128	0.602	0.695	0.269	0.513	0.664	0.265	0.528	0.631
728	35.454	0.085	0.560	1.015	0.072	0.739	0.866	0.049	0.916	0.709	0.069	1.054	0.638	-0.092	0.940	0.749	-0.163	0.756	0.621	-0.105	0.603	0.712	-0.130	0.601	0.724	0.189	0.910	0.683	0.283	0.758	0.616	0.274	0.568	0.655	0.264	0.514	0.652	0.008	0.573	0.991	-0.098	0.381	1.256	-0.047	0.268	1.420	-0.023	0.271	1.414	0.155	0.573	0.982	0.264	0.394	1.148	0.408	0.143	1.398	0.404	0.061	1.318	0.056	0.873	0.750	-0.126	0.597	0.727	-0.128	0.603	0.696	0.264	0.504	0.660	0.261	0.519	0.628
729	35.471	0.085	0.560	1.015	0.072	0.739	0.866	0.049	0.916	0.709	0.069	1.054	0.638	-0.092	0.940	0.749	-0.163	0.756	0.621	-0.105	0.603	0.712	-0.130	0.601	0.724	0.189	0.910	0.683	0.283	0.758	0.616	0.274	0.568	0.655	0.264	0.514	0.652	0.008	0.573	0.991	-0.098	0.381	1.256	-0.047	0.268	1.420	-0.023	0.271	1.414	0.155	0.573	0.982	0.264	0.394	1.148	0.408	0.143	1.398	0.404	0.061	1.318	0.056	0.873	0.750	-0.126	0.597	0.727	-0.128	0.603	0.696	0.264	0.504	0.660	0.261	0.519	0.628
730	35.488	0.081	0.559	1.016	0.069	0.738	0.867	0.048	0.915	0.710	0.068	1.053	0.639	-0.095	0.942	0.748	-0.163	0.754	0.620	-0.106	0.602	0.711	-0.132	0.602	0.724	0.188	0.909	0.683	0.284	0.757	0.615	0.273	0.569	0.652	0.265	0.508	0.649	0.004	0.571	0.992	-0.102	0.379	1.260	-0.049	0.264	1.422	-0.023	0.265	1.415	0.152	0.572	0.983	0.265	0.391	1.147	0.413	0.143	1.386	0.408	0.064	1.307	0.055	0.872	0.751	-0.128	0.598	0.727	-0.130	0.607	0.692	0.265	0.498	0.657	0.261	0.512	0.626
731	35.504	0.078	0.558	1.017	0.067	0.737	0.868	0.047	0.915	0.710	0.067	1.051	0.639	-0.096	0.943	0.748	-0.163	0.753	0.620	-0.106	0.602	0.710	-0.134	0.603	0.721	0.188	0.909	0.682	0.285	0.757	0.614	0.274	0.572	0.649	0.299	0.554	0.673	0.001	0.570	0.992	-0.106	0.377	1.261	-0.051	0.262	1.424	-0.024	0.262	1.415	0.150	0.571	0.984	0.266	0.389	1.147	0.417	0.143	1.376	0.412	0.067	1.297	0.054	0.871	0.752	-0.131	0.600	0.722	-0.131	0.609	0.690	0.299	0.549	0.681	0.294	0.559	0.649
732	35.521	0.078	0.558	1.017	0.067	0.737	0.868	0.047	0.915	0.710	0.067	1.051	0.639	-0.096	0.943	0.748	-0.163	0.753	0.620	-0.106	0.602	0.710	-0.134	0.603	0.721	0.188	0.909	0.682	0.285	0.757	0.614	0.274	0.572	0.649	0.299	0.554	0.673	0.001	0.570	0.992	-0.106	0.377	1.261	-0.051	0.262	1.424	-0.024	0.262	1.415	0.150	0.571	0.984	0.266	0.389	1.147	0.417	0.143	1.376	0.412	0.067	1.297	0.054	0.871	0.752	-0.131	0.600	0.722	-0.131	0.609	0.690	0.299	0.549	0.681	0.294	0.559	0.649
733	35.538	0.078	0.558	1.017	0.067	0.737	0.868	0.047	0.915	0.710	0.067	1.051	0.639	-0.096	0.943	0.748	-0.163	0.753	0.620	-0.106	0.602	0.710	-0.134	0.603	0.721	0.188	0.909	0.682	0.285	0.757	0.614	0.274	0.572	0.649	0.299	0.554	0.673	0.001	0.570	0.992	-0.106	0.377	1.261	-0.051	0.262	1.424	-0.024	0.262	1.415	0.150	0.571	0.984	0.266	0.389	1.147	0.417	0.143	1.376	0.412	0.067	1.297	0.054	0.871	0.752	-0.131	0.600	0.722	-0.131	0.609	0.690	0.299	0.549	0.681	0.294	0.559	0.649
734	35.554	0.076	0.557	1.017	0.065	0.737	0.869	0.047	0.915	0.711	0.066	1.051	0.639	-0.101	0.944	0.751	-0.163	0.753	0.620	-0.111	0.601	0.707	-0.135	0.603	0.720	0.188	0.908	0.682	0.286	0.757	0.613	0.279	0.575	0.647	0.317	0.577	0.682	-0.003	0.569	0.991	-0.110	0.378	1.260	-0.054	0.261	1.424	-0.026	0.260	1.413	0.148	0.571	0.984	0.267	0.387	1.146	0.421	0.143	1.367	0.414	0.068	1.290	0.052	0.871	0.752	-0.133	0.601	0.721	-0.132	0.610	0.690	0.317	0.574	0.690	0.312	0.582	0.657
735	35.571	0.076	0.557	1.017	0.065	0.737	0.869	0.047	0.915	0.711	0.066	1.051	0.639	-0.101	0.944	0.751	-0.163	0.753	0.620	-0.111	0.601	0.707	-0.135	0.603	0.720	0.188	0.908	0.682	0.286	0.757	0.613	0.279	0.575	0.647	0.317	0.577	0.682	-0.003	0.569	0.991	-0.110	0.378	1.260	-0.054	0.261	1.424	-0.026	0.260	1.413	0.148	0.571	0.984	0.267	0.387	1.146	0.421	0.143	1.367	0.414	0.068	1.290	0.052	0.871	0.752	-0.133	0.601	0.721	-0.132	0.610	0.690	0.317	0.574	0.690	0.312	0.582	0.657
736	35.588	0.076	0.557	1.017	0.065	0.737	0.869	0.047	0.915	0.711	0.066	1.051	0.639	-0.101	0.944	0.751	-0.163	0.753	0.620	-0.111	0.601	0.707	-0.135	0.603	0.720	0.188	0.908	0.682	0.286	0.757	0.613	0.279	0.575	0.647	0.317	0.577	0.682	-0.003	0.569	0.991	-0.110	0.378	1.260	-0.054	0.261	1.424	-0.026	0.260	1.413	0.148	0.571	0.984	0.267	0.387	1.146	0.421	0.143	1.367	0.414	0.068	1.290	0.052	0.871	0.752	-0.133	0.601	0.721	-0.132	0.610	0.690	0.317	0.574	0.690	0.312	0.582	0.657
737	35.604	0.074	0.556	1.016	0.063	0.737	0.869	0.046	0.916	0.712	0.066	1.050	0.640	-0.102	0.945	0.752	-0.162	0.752	0.621	-0.116	0.599	0.705	-0.136	0.604	0.719	0.187	0.908	0.682	0.286	0.757	0.612	0.287	0.579	0.643	0.322	0.610	0.679	-0.005	0.568	0.990	-0.112	0.380	1.256	-0.056	0.262	1.421	-0.028	0.259	1.410	0.147	0.570	0.984	0.268	0.385	1.145	0.422	0.143	1.362	0.415	0.069	1.284	0.051	0.872	0.753	-0.134	0.602	0.721	-0.133	0.611	0.689	0.326	0.593	0.696	0.319	0.609	0.655
738	35.621	0.074	0.556	1.016	0.063	0.737	0.869	0.046	0.916	0.712	0.066	1.050	0.640	-0.102	0.945	0.752	-0.162	0.752	0.621	-0.116	0.599	0.705	-0.136	0.604	0.719	0.187	0.908	0.682	0.286	0.757	0.612	0.287	0.579	0.643	0.322	0.610	0.679	-0.005	0.568	0.990	-0.112	0.380	1.256	-0.056	0.262	1.421	-0.028	0.259	1.410	0.147	0.570	0.984	0.268	0.385	1.145	0.422	0.143	1.362	0.415	0.069	1.284	0.051	0.872	0.753	-0.134	0.602	0.721	-0.133	0.611	0.689	0.326	0.593	0.696	0.319	0.609	0.655
739	35.638	0.072	0.556	1.016	0.062	0.737	0.870	0.045	0.917	0.713	0.065	1.050	0.641	-0.102	0.945	0.754	-0.161	0.752	0.623	-0.119	0.598	0.704	-0.137	0.604	0.718	0.187	0.908	0.682	0.287	0.757	0.611	0.293	0.581	0.639	0.327	0.581	0.662	-0.007	0.568	0.989	-0.112	0.383	1.251	-0.057	0.264	1.418	-0.029	0.260	1.406	0.146	0.570	0.984	0.268	0.383	1.144	0.423	0.143	1.358	0.416	0.070	1.281	0.051	0.872	0.754	-0.135	0.602	0.720	-0.134	0.612	0.688	0.338	0.554	0.688	0.326	0.580	0.639
740	35.655	0.072	0.556	1.016	0.062	0.737	0.870	0.045	0.917	0.713	0.065	1.050	0.641	-0.102	0.945	0.754	-0.161	0.752	0.623	-0.119	0.598	0.704	-0.137	0.604	0.718	0.187	0.908	0.682	0.287	0.757	0.611	0.293	0.581	0.639	0.327	0.581	0.662	-0.007	0.568	0.989	-0.112	0.383	1.251	-0.057	0.264	1.418	-0.029	0.260	1.406	0.146	0.570	0.984	0.268	0.383	1.144	0.423	0.143	1.358	0.416	0.070	1.281	0.051	0.872	0.754	-0.135	0.602	0.720	-0.134	0.612	0.688	0.338	0.554	0.688	0.326	0.580	0.639
